# xmcd
#
# Track frame offsets:
#	150
#	14637
#	34688
#	56236
#	70259
#	88882
#	103459
#	116996
#	131812
#	146278
#	162530
#	178431
#	192825
#	212151
#
# Disc length: 3035 seconds
#
# Revision: 1
# Processed by: cddbd v1.5.1PL0 Copyright (c) Steve Scherf et al.
# Submitted via: EasyCDDAExtractor 5.0.7
#
DISCID=e50bd90e
DTITLE=Marcio Correia - Me agrada ser gaucho
DYEAR=2005
DGENRE=Gaucha
TTITLE0=De-le que de-le vaneira
TTITLE1=Vaneira e Saudade
TTITLE2=Ginete e campesino
TTITLE3=A Mango e Ponta de espora
TTITLE4=Me agrada ser gaucho
TTITLE5=Trancão cuiudo
TTITLE6=Sem teu amor
TTITLE7=Te Fresqueia e me judia
TTITLE8=Bailanta de Campanha
TTITLE9=Poema e coração
TTITLE10=Revirando o quarto
TTITLE11=A moda antiga
TTITLE12=Visita
TTITLE13=Sem voce não sou feliz
EXTD=
EXTT0=
EXTT1=
EXTT2=
EXTT3=
EXTT4=
EXTT5=
EXTT6=
EXTT7=
EXTT8=
EXTT9=
EXTT10=
EXTT11=
EXTT12=
EXTT13=
PLAYORDER=
